<svg width="164" height="128" viewBox="0 0 164 128" fill="none" xmlns="http://www.w3.org/2000/svg">
<path d="M107.329 55.8145C103.343 49.4355 94.9401 47.4957 88.5611 51.4817V51.4817C82.1822 55.4677 80.2423 63.8702 84.2283 70.2492L113.098 116.45C117.084 122.829 125.486 124.769 131.865 120.783V120.783C138.244 116.797 140.184 108.394 136.198 102.015L107.329 55.8145Z" fill="#00a79d"/>
<path d="M59.5432 14.4377C64.5258 6.46399 75.0289 4.03915 83.0027 9.02169V9.02169C90.9764 14.0042 93.4012 24.5074 88.4187 32.4811L37.8972 113.332C32.9147 121.306 22.4115 123.731 14.4378 118.748V118.748C6.46405 113.766 4.03921 103.263 9.02176 95.289L59.5432 14.4377Z" fill="#4781f1"/>
<path d="M136.605 74.0573C136.605 66.5353 142.703 60.4376 150.225 60.4376V60.4376C157.747 60.4376 163.845 66.5353 163.845 74.0573V74.0573C163.845 81.5793 157.747 87.677 150.225 87.677V87.677C142.703 87.677 136.605 81.5793 136.605 74.0573V74.0573Z" fill="#00a79d"/>
</svg>
