<svg width="671" height="128" viewBox="0 0 671 128" fill="none" xmlns="http://www.w3.org/2000/svg">
<path d="M231.441 72.6716H208.129L203.681 83.4345H191.774L214.154 33.2074H225.631L248.083 83.4345H235.889L231.441 72.6716ZM227.783 63.8459L219.821 44.6161L211.859 63.8459H227.783Z" fill="#252B3F"/>
<path d="M261.172 42.6788H245.104V33.2074H288.86V42.6788H272.792V83.4345H261.172V42.6788Z" fill="#252B3F"/>
<path d="M325.658 72.6716H302.346L297.898 83.4345H285.991L308.371 33.2074H319.848L342.3 83.4345H330.106L325.658 72.6716ZM322 63.8459L314.038 44.6161L306.076 63.8459H322Z" fill="#252B3F"/>
<path d="M364.008 84.2955C360.039 84.2955 356.189 83.7694 352.459 82.717C348.777 81.6168 345.812 80.2056 343.564 78.4836L347.51 69.7297C349.661 71.3083 352.22 72.5759 355.185 73.5326C358.15 74.4893 361.115 74.9677 364.079 74.9677C367.379 74.9677 369.818 74.4893 371.396 73.5326C372.974 72.528 373.763 71.2126 373.763 69.5862C373.763 68.3903 373.285 67.4097 372.329 66.6443C371.42 65.8311 370.224 65.1853 368.742 64.707C367.307 64.2286 365.347 63.7024 362.86 63.1284C359.034 62.2195 355.902 61.3107 353.463 60.4018C351.024 59.4929 348.92 58.0339 347.151 56.0249C345.429 54.0158 344.569 51.337 344.569 47.9885C344.569 45.0706 345.358 42.4396 346.936 40.0957C348.514 37.7039 350.881 35.8144 354.037 34.4272C357.241 33.04 361.138 32.3464 365.729 32.3464C368.933 32.3464 372.066 32.7291 375.126 33.4944C378.187 34.2598 380.865 35.36 383.16 36.7951L379.573 45.6207C374.935 42.9897 370.296 41.6743 365.658 41.6743C362.406 41.6743 359.991 42.2005 358.413 43.2528C356.882 44.3052 356.117 45.6924 356.117 47.4145C356.117 49.1366 357.002 50.4281 358.771 51.2892C360.589 52.1024 363.338 52.9156 367.02 53.7288C370.846 54.6376 373.978 55.5465 376.417 56.4554C378.856 57.3643 380.936 58.7993 382.658 60.7606C384.427 62.7218 385.312 65.3767 385.312 68.7251C385.312 71.5953 384.499 74.2262 382.873 76.618C381.295 78.9619 378.904 80.8275 375.7 82.2147C372.496 83.6019 368.599 84.2955 364.008 84.2955Z" fill="#252B3F"/>
<path d="M459.618 33.2074V83.4345H450.078L425.044 52.9395V83.4345H413.567V33.2074H423.179L448.141 63.7024V33.2074H459.618Z" fill="#252B3F"/>
<path d="M504.566 72.6716H481.253L476.806 83.4345H464.899L487.279 33.2074H498.756L521.208 83.4345H509.013L504.566 72.6716ZM500.908 63.8459L492.946 44.6161L484.983 63.8459H500.908Z" fill="#252B3F"/>
<path d="M526.417 33.2074H538.038V73.9631H563.215V83.4345H526.417V33.2074Z" fill="#252B3F"/>
<path d="M603.196 72.6716H579.884L575.436 83.4345H563.529L585.909 33.2074H597.386L619.838 83.4345H607.644L603.196 72.6716ZM599.538 63.8459L591.576 44.6161L583.614 63.8459H599.538Z" fill="#252B3F"/>
<path d="M657.04 83.4345L647.356 69.4427H646.782H636.668V83.4345H625.047V33.2074H646.782C651.229 33.2074 655.079 33.9489 658.331 35.4318C661.63 36.9146 664.165 39.0194 665.934 41.746C667.704 44.4726 668.588 47.7015 668.588 51.4327C668.588 55.1638 667.68 58.3927 665.862 61.1193C664.093 63.7981 661.559 65.855 658.259 67.2901L669.521 83.4345H657.04ZM656.824 51.4327C656.824 48.6104 655.916 46.4578 654.099 44.9749C652.281 43.4442 649.627 42.6788 646.136 42.6788H636.668V60.1865H646.136C649.627 60.1865 652.281 59.4212 654.099 57.8904C655.916 56.3597 656.824 54.2071 656.824 51.4327Z" fill="#252B3F"/>
<path d="M467.166 104.949H474.805C476.669 104.949 478.325 105.314 479.773 106.042C481.221 106.754 482.344 107.772 483.143 109.096C483.942 110.403 484.341 111.918 484.341 113.639C484.341 115.361 483.942 116.883 483.143 118.207C482.344 119.515 481.221 120.533 479.773 121.261C478.325 121.973 476.669 122.329 474.805 122.329H467.166V104.949ZM474.655 119.598C475.936 119.598 477.06 119.358 478.025 118.878C479.007 118.381 479.756 117.686 480.272 116.792C480.805 115.882 481.071 114.831 481.071 113.639C481.071 112.447 480.805 111.405 480.272 110.511C479.756 109.601 479.007 108.905 478.025 108.425C477.06 107.929 475.936 107.681 474.655 107.681H470.411V119.598H474.655Z" fill="#252B3F"/>
<path d="M500.897 119.623V122.329H487.791V104.949H500.548V107.656H491.036V112.174H499.474V114.831H491.036V119.623H500.897Z" fill="#252B3F"/>
<path d="M509.932 122.577C508.584 122.577 507.278 122.387 506.013 122.006C504.765 121.625 503.774 121.121 503.042 120.492L504.165 117.984C504.881 118.547 505.755 119.01 506.787 119.374C507.835 119.722 508.884 119.896 509.932 119.896C511.23 119.896 512.196 119.689 512.828 119.275C513.477 118.861 513.802 118.315 513.802 117.636C513.802 117.14 513.619 116.734 513.253 116.42C512.903 116.089 512.454 115.832 511.905 115.65C511.355 115.468 510.606 115.261 509.658 115.029C508.326 114.715 507.244 114.401 506.412 114.086C505.597 113.772 504.889 113.283 504.29 112.621C503.708 111.943 503.417 111.032 503.417 109.89C503.417 108.93 503.674 108.061 504.19 107.283C504.723 106.489 505.514 105.86 506.562 105.396C507.627 104.933 508.925 104.701 510.457 104.701C511.522 104.701 512.57 104.834 513.602 105.098C514.634 105.363 515.524 105.744 516.273 106.241L515.25 108.748C514.484 108.301 513.685 107.962 512.853 107.73C512.021 107.498 511.214 107.383 510.432 107.383C509.15 107.383 508.193 107.598 507.561 108.028C506.945 108.458 506.637 109.029 506.637 109.741C506.637 110.238 506.812 110.643 507.161 110.958C507.527 111.272 507.985 111.521 508.534 111.703C509.084 111.885 509.832 112.092 510.781 112.323C512.079 112.621 513.144 112.936 513.977 113.267C514.809 113.581 515.516 114.069 516.099 114.732C516.698 115.394 516.997 116.287 516.997 117.413C516.997 118.373 516.731 119.242 516.198 120.02C515.682 120.798 514.892 121.418 513.827 121.882C512.762 122.345 511.463 122.577 509.932 122.577Z" fill="#252B3F"/>
<path d="M520.215 104.949H523.461V122.329H520.215V104.949Z" fill="#252B3F"/>
<path d="M540.121 113.441H543.191V120.367C542.293 121.079 541.244 121.625 540.046 122.006C538.847 122.387 537.616 122.577 536.351 122.577C534.57 122.577 532.964 122.196 531.533 121.435C530.101 120.657 528.978 119.59 528.163 118.232C527.347 116.875 526.939 115.344 526.939 113.639C526.939 111.934 527.347 110.403 528.163 109.046C528.978 107.689 530.101 106.629 531.533 105.868C532.981 105.09 534.603 104.701 536.401 104.701C537.865 104.701 539.197 104.941 540.395 105.421C541.594 105.901 542.6 106.605 543.416 107.532L541.369 109.518C540.037 108.194 538.431 107.532 536.551 107.532C535.319 107.532 534.221 107.788 533.255 108.301C532.307 108.814 531.558 109.534 531.009 110.461C530.476 111.388 530.21 112.447 530.21 113.639C530.21 114.798 530.476 115.841 531.009 116.767C531.558 117.694 532.307 118.423 533.255 118.952C534.221 119.482 535.311 119.747 536.526 119.747C537.89 119.747 539.089 119.449 540.121 118.853V113.441Z" fill="#252B3F"/>
<path d="M563 104.949V122.329H560.329L550.692 110.561V122.329H547.472V104.949H550.143L559.779 116.718V104.949H563Z" fill="#252B3F"/>
<path d="M579.999 122.577C578.651 122.577 577.345 122.387 576.08 122.006C574.831 121.625 573.841 121.121 573.109 120.492L574.232 117.984C574.948 118.547 575.822 119.01 576.854 119.374C577.902 119.722 578.951 119.896 579.999 119.896C581.297 119.896 582.263 119.689 582.895 119.275C583.544 118.861 583.869 118.315 583.869 117.636C583.869 117.14 583.686 116.734 583.319 116.42C582.97 116.089 582.521 115.832 581.971 115.65C581.422 115.468 580.673 115.261 579.724 115.029C578.393 114.715 577.311 114.401 576.479 114.086C575.664 113.772 574.956 113.283 574.357 112.621C573.775 111.943 573.483 111.032 573.483 109.89C573.483 108.93 573.741 108.061 574.257 107.283C574.79 106.489 575.58 105.86 576.629 105.396C577.694 104.933 578.992 104.701 580.523 104.701C581.589 104.701 582.637 104.834 583.669 105.098C584.701 105.363 585.591 105.744 586.34 106.241L585.317 108.748C584.551 108.301 583.752 107.962 582.92 107.73C582.088 107.498 581.281 107.383 580.498 107.383C579.217 107.383 578.26 107.598 577.627 108.028C577.012 108.458 576.704 109.029 576.704 109.741C576.704 110.238 576.879 110.643 577.228 110.958C577.594 111.272 578.052 111.521 578.601 111.703C579.15 111.885 579.899 112.092 580.848 112.323C582.146 112.621 583.211 112.936 584.043 113.267C584.876 113.581 585.583 114.069 586.165 114.732C586.765 115.394 587.064 116.287 587.064 117.413C587.064 118.373 586.798 119.242 586.265 120.02C585.749 120.798 584.959 121.418 583.894 121.882C582.828 122.345 581.53 122.577 579.999 122.577Z" fill="#252B3F"/>
<path d="M593.583 107.681H587.792V104.949H602.621V107.681H596.829V122.329H593.583V107.681Z" fill="#252B3F"/>
<path d="M612.254 122.577C609.84 122.577 607.96 121.907 606.612 120.566C605.263 119.209 604.589 117.272 604.589 114.756V104.949H607.835V114.632C607.835 118.042 609.316 119.747 612.279 119.747C615.224 119.747 616.697 118.042 616.697 114.632V104.949H619.893V114.756C619.893 117.272 619.219 119.209 617.871 120.566C616.539 121.907 614.667 122.577 612.254 122.577Z" fill="#252B3F"/>
<path d="M624.438 104.949H632.077C633.941 104.949 635.597 105.314 637.045 106.042C638.493 106.754 639.616 107.772 640.415 109.096C641.214 110.403 641.614 111.918 641.614 113.639C641.614 115.361 641.214 116.883 640.415 118.207C639.616 119.515 638.493 120.533 637.045 121.261C635.597 121.973 633.941 122.329 632.077 122.329H624.438V104.949ZM631.927 119.598C633.209 119.598 634.332 119.358 635.298 118.878C636.279 118.381 637.028 117.686 637.544 116.792C638.077 115.882 638.343 114.831 638.343 113.639C638.343 112.447 638.077 111.405 637.544 110.511C637.028 109.601 636.279 108.905 635.298 108.425C634.332 107.929 633.209 107.681 631.927 107.681H627.683V119.598H631.927Z" fill="#252B3F"/>
<path d="M645.063 104.949H648.308V122.329H645.063V104.949Z" fill="#252B3F"/>
<path d="M661.199 122.577C659.418 122.577 657.812 122.196 656.38 121.435C654.949 120.657 653.826 119.59 653.01 118.232C652.195 116.858 651.787 115.327 651.787 113.639C651.787 111.951 652.195 110.428 653.01 109.071C653.826 107.697 654.949 106.629 656.38 105.868C657.812 105.09 659.418 104.701 661.199 104.701C662.979 104.701 664.585 105.09 666.017 105.868C667.448 106.629 668.571 107.689 669.387 109.046C670.202 110.403 670.61 111.934 670.61 113.639C670.61 115.344 670.202 116.875 669.387 118.232C668.571 119.59 667.448 120.657 666.017 121.435C664.585 122.196 662.979 122.577 661.199 122.577ZM661.199 119.747C662.364 119.747 663.412 119.49 664.344 118.977C665.276 118.447 666.008 117.719 666.541 116.792C667.074 115.849 667.34 114.798 667.34 113.639C667.34 112.481 667.074 111.438 666.541 110.511C666.008 109.567 665.276 108.839 664.344 108.326C663.412 107.796 662.364 107.532 661.199 107.532C660.034 107.532 658.985 107.796 658.053 108.326C657.121 108.839 656.389 109.567 655.856 110.511C655.324 111.438 655.057 112.481 655.057 113.639C655.057 114.798 655.324 115.849 655.856 116.792C656.389 117.719 657.121 118.447 658.053 118.977C658.985 119.49 660.034 119.747 661.199 119.747Z" fill="#161D31"/>
<path d="M108.019 55.8145C104.033 49.4355 95.6301 47.4957 89.2511 51.4817V51.4817C82.8721 55.4677 80.9322 63.8702 84.9183 70.2492L113.788 116.45C117.774 122.829 126.176 124.769 132.555 120.783V120.783C138.934 116.797 140.874 108.394 136.888 102.015L108.019 55.8145Z" fill="#00a79d"/>
<path d="M60.2332 14.4377C65.2157 6.46399 75.7189 4.03915 83.6926 9.02169V9.02169C91.6663 14.0042 94.0912 24.5074 89.1086 32.4811L38.5872 113.332C33.6046 121.306 23.1015 123.731 15.1277 118.748V118.748C7.15399 113.766 4.72915 103.263 9.7117 95.289L60.2332 14.4377Z" fill="#4781f1"/>
<path d="M137.295 74.0573C137.295 66.5353 143.393 60.4376 150.915 60.4376V60.4376C158.437 60.4376 164.535 66.5353 164.535 74.0573V74.0573C164.535 81.5793 158.437 87.677 150.915 87.677V87.677C143.393 87.677 137.295 81.5793 137.295 74.0573V74.0573Z" fill="#00a79d"/>
</svg>
